<svg width="109" height="65" viewBox="0 0 109 65" fill="none" xmlns="http://www.w3.org/2000/svg">
<rect width="100" height="38.6076" rx="19.3038" fill="#D9D9D9"/>
<circle cx="72" cy="20" r="15" fill="#111111"/>
<path d="M8.03 51.31C9.362 51.31 10.526 51.58 11.522 52.12C12.53 52.648 13.304 53.392 13.844 54.352C14.384 55.312 14.654 56.41 14.654 57.646C14.654 58.87 14.378 59.962 13.826 60.922C13.286 61.882 12.512 62.638 11.504 63.19C10.508 63.73 9.35 64 8.03 64H3.008V51.31H8.03ZM7.76 60.886C8.792 60.886 9.602 60.604 10.19 60.04C10.778 59.476 11.072 58.678 11.072 57.646C11.072 56.602 10.778 55.798 10.19 55.234C9.602 54.658 8.792 54.37 7.76 54.37H6.536V60.886H7.76ZM15.6683 58.942C15.6683 57.898 15.8543 56.986 16.2263 56.206C16.6103 55.426 17.1263 54.826 17.7743 54.406C18.4343 53.986 19.1663 53.776 19.9703 53.776C20.6663 53.776 21.2663 53.914 21.7703 54.19C22.2743 54.466 22.6643 54.838 22.9403 55.306V53.902H26.4683V64H22.9403V62.596C22.6643 63.064 22.2683 63.436 21.7523 63.712C21.2483 63.988 20.6543 64.126 19.9703 64.126C19.1663 64.126 18.4343 63.916 17.7743 63.496C17.1263 63.076 16.6103 62.476 16.2263 61.696C15.8543 60.904 15.6683 59.986 15.6683 58.942ZM22.9403 58.942C22.9403 58.294 22.7603 57.784 22.4003 57.412C22.0523 57.04 21.6203 56.854 21.1043 56.854C20.5763 56.854 20.1383 57.04 19.7903 57.412C19.4423 57.772 19.2683 58.282 19.2683 58.942C19.2683 59.59 19.4423 60.106 19.7903 60.49C20.1383 60.862 20.5763 61.048 21.1043 61.048C21.6203 61.048 22.0523 60.862 22.4003 60.49C22.7603 60.118 22.9403 59.602 22.9403 58.942ZM32.0067 55.684C32.4027 55.108 32.8827 54.652 33.4467 54.316C34.0107 53.98 34.6167 53.812 35.2647 53.812V57.574H34.2747C33.5067 57.574 32.9367 57.724 32.5647 58.024C32.1927 58.324 32.0067 58.846 32.0067 59.59V64H28.4787V53.902H32.0067V55.684ZM42.8475 64L40.0575 59.86V64H36.5295V50.68H40.0575V57.862L42.8475 53.902H47.0775L43.0995 58.978L47.1495 64H42.8475ZM66.4431 51.31V64H62.9151V56.998L60.5211 64H57.5691L55.1571 56.944V64H51.6291V51.31H55.8951L59.0811 59.554L62.1951 51.31H66.4431ZM73.1494 64.126C72.1414 64.126 71.2354 63.916 70.4314 63.496C69.6394 63.076 69.0154 62.476 68.5594 61.696C68.1034 60.916 67.8754 59.998 67.8754 58.942C67.8754 57.898 68.1034 56.986 68.5594 56.206C69.0274 55.426 69.6574 54.826 70.4494 54.406C71.2534 53.986 72.1594 53.776 73.1674 53.776C74.1754 53.776 75.0754 53.986 75.8674 54.406C76.6714 54.826 77.3014 55.426 77.7574 56.206C78.2254 56.986 78.4594 57.898 78.4594 58.942C78.4594 59.986 78.2254 60.904 77.7574 61.696C77.3014 62.476 76.6714 63.076 75.8674 63.496C75.0634 63.916 74.1574 64.126 73.1494 64.126ZM73.1494 61.066C73.6414 61.066 74.0494 60.886 74.3734 60.526C74.7094 60.154 74.8774 59.626 74.8774 58.942C74.8774 58.258 74.7094 57.736 74.3734 57.376C74.0494 57.016 73.6474 56.836 73.1674 56.836C72.6874 56.836 72.2854 57.016 71.9614 57.376C71.6374 57.736 71.4754 58.258 71.4754 58.942C71.4754 59.638 71.6314 60.166 71.9434 60.526C72.2554 60.886 72.6574 61.066 73.1494 61.066ZM79.3187 58.942C79.3187 57.898 79.5047 56.986 79.8767 56.206C80.2607 55.426 80.7827 54.826 81.4427 54.406C82.1027 53.986 82.8347 53.776 83.6387 53.776C84.2867 53.776 84.8627 53.914 85.3667 54.19C85.8827 54.454 86.2847 54.82 86.5727 55.288V50.68H90.1187V64H86.5727V62.596C86.2967 63.064 85.9067 63.436 85.4027 63.712C84.8987 63.988 84.3047 64.126 83.6207 64.126C82.8167 64.126 82.0847 63.916 81.4247 63.496C80.7767 63.076 80.2607 62.476 79.8767 61.696C79.5047 60.904 79.3187 59.986 79.3187 58.942ZM86.5907 58.942C86.5907 58.294 86.4107 57.784 86.0507 57.412C85.7027 57.04 85.2707 56.854 84.7547 56.854C84.2267 56.854 83.7887 57.04 83.4407 57.412C83.0927 57.772 82.9187 58.282 82.9187 58.942C82.9187 59.59 83.0927 60.106 83.4407 60.49C83.7887 60.862 84.2267 61.048 84.7547 61.048C85.2707 61.048 85.7027 60.862 86.0507 60.49C86.4107 60.118 86.5907 59.602 86.5907 58.942ZM101.777 58.834C101.777 59.11 101.759 59.386 101.723 59.662H95.0451C95.0811 60.214 95.2311 60.628 95.4951 60.904C95.7711 61.168 96.1191 61.3 96.5391 61.3C97.1271 61.3 97.5471 61.036 97.7991 60.508H101.561C101.405 61.204 101.099 61.828 100.643 62.38C100.199 62.92 99.6351 63.346 98.9511 63.658C98.2671 63.97 97.5111 64.126 96.6831 64.126C95.6871 64.126 94.7991 63.916 94.0191 63.496C93.2511 63.076 92.6451 62.476 92.2011 61.696C91.7691 60.916 91.5531 59.998 91.5531 58.942C91.5531 57.886 91.7691 56.974 92.2011 56.206C92.6331 55.426 93.2331 54.826 94.0011 54.406C94.7811 53.986 95.6751 53.776 96.6831 53.776C97.6791 53.776 98.5611 53.98 99.3291 54.388C100.097 54.796 100.697 55.384 101.129 56.152C101.561 56.908 101.777 57.802 101.777 58.834ZM98.1771 57.952C98.1771 57.52 98.0331 57.184 97.7451 56.944C97.4571 56.692 97.0971 56.566 96.6651 56.566C96.2331 56.566 95.8791 56.686 95.6031 56.926C95.3271 57.154 95.1471 57.496 95.0631 57.952H98.1771Z" fill="white"/>
</svg>
